<?xml version="1.0" encoding="UTF-8"?>
<svg version="1.1" xmlns="http://www.w3.org/2000/svg" width="1816" height="332">
<path d="M0 0 C1.1026366 -0.00694553 2.20527319 -0.01389106 3.34132302 -0.02104706 C7.01373832 -0.03925468 10.68550308 -0.02906959 14.35794067 -0.01878357 C17.00003037 -0.02584522 19.6420748 -0.03445528 22.28414917 -0.04489136 C28.70244438 -0.06647315 35.12056188 -0.06641938 41.53888141 -0.05826581 C46.75880905 -0.05195156 51.97868509 -0.05311587 57.19861221 -0.05953789 C58.31540415 -0.06089037 58.31540415 -0.06089037 59.45475755 -0.06227018 C60.96754345 -0.06412149 62.48032933 -0.06598405 63.9931152 -0.06785773 C78.16204939 -0.08441623 92.33088385 -0.07573397 106.49981202 -0.05887216 C119.44360936 -0.04418026 132.38717447 -0.05879979 145.3309419 -0.08764232 C158.64288781 -0.11708282 171.95472671 -0.12799485 185.26670372 -0.11846012 C186.77436135 -0.11743764 188.282019 -0.11644302 189.78967667 -0.11547661 C190.53134802 -0.11500022 191.27301937 -0.11452383 192.0371656 -0.114033 C197.24546959 -0.11187483 202.45367158 -0.12164116 207.66195297 -0.13624763 C214.01704413 -0.15382265 220.37183948 -0.15358019 226.72691928 -0.13089598 C229.96506111 -0.11979952 233.20257893 -0.1192196 236.44071579 -0.13519669 C253.26207747 -0.21160649 266.96500115 0.00275386 279.62796021 12.5146637 C287.17042148 21.57574134 290.23745757 31.22644456 290.1426239 42.88670349 C290.14956943 43.98934009 290.15651496 45.09197668 290.16367096 46.22802651 C290.18187859 49.90044182 290.17169349 53.57220657 290.16140747 57.24464417 C290.16846912 59.88673386 290.17707919 62.52877829 290.18751526 65.17085266 C290.20909705 71.58914787 290.20904329 78.00726537 290.20088971 84.4255849 C290.19457546 89.64551254 290.19573978 94.86538858 290.20216179 100.0853157 C290.20306344 100.82984367 290.2039651 101.57437163 290.20489408 102.34146104 C290.20674539 103.85424694 290.20860795 105.36703282 290.21048164 106.87981869 C290.22704013 121.04875288 290.21835787 135.21758734 290.20149606 149.38651551 C290.18680416 162.33031285 290.20142369 175.27387796 290.23026622 188.21764539 C290.25970673 201.5295913 290.27061875 214.8414302 290.26108402 228.15340722 C290.26006154 229.66106484 290.25906693 231.16872249 290.25810051 232.67638016 C290.25762412 233.41805151 290.25714773 234.15972286 290.2566569 234.9238691 C290.25449873 240.13217309 290.26426506 245.34037507 290.27887154 250.54865646 C290.29644655 256.90374762 290.29620409 263.25854297 290.27351988 269.61362277 C290.26242342 272.8517646 290.2618435 276.08928242 290.27782059 279.32741928 C290.35423039 296.14878096 290.13987004 309.85170465 277.62796021 322.5146637 C268.56688256 330.05712497 258.91617934 333.12416107 247.25592041 333.02932739 C246.15328381 333.03627292 245.05064722 333.04321845 243.91459739 333.05037445 C240.24218209 333.06858208 236.57041733 333.05839698 232.89797974 333.04811096 C230.25589004 333.05517261 227.61384561 333.06378268 224.97177124 333.07421875 C218.55347603 333.09580054 212.13535853 333.09574678 205.717039 333.08759321 C200.49711136 333.08127895 195.27723532 333.08244327 190.0573082 333.08886528 C188.94051626 333.09021776 188.94051626 333.09021776 187.80116286 333.09159757 C186.28837696 333.09344888 184.77559108 333.09531144 183.26280521 333.09718513 C169.09387102 333.11374362 154.92503656 333.10506137 140.75610839 333.08819955 C127.81231105 333.07350765 114.86874594 333.08812718 101.92497851 333.11696971 C88.6130326 333.14641022 75.3011937 333.15732225 61.98921669 333.14778751 C60.48155906 333.14676503 58.97390141 333.14577042 57.46624374 333.144804 C56.72457239 333.14432761 55.98290104 333.14385122 55.21875481 333.14336039 C50.01045082 333.14120222 44.80224883 333.15096855 39.59396744 333.16557503 C33.23887628 333.18315004 26.88408093 333.18290758 20.52900113 333.16022337 C17.2908593 333.14912691 14.05334148 333.14854699 10.81520462 333.16452408 C-6.00615706 333.24093388 -19.70908074 333.02657353 -32.37203979 320.5146637 C-39.91450107 311.45358605 -42.98153716 301.80288283 -42.88670349 290.1426239 C-42.89364902 289.03998731 -42.90059455 287.93735071 -42.90775055 286.80130088 C-42.92595818 283.12888558 -42.91577308 279.45712082 -42.90548706 275.78468323 C-42.91254871 273.14259353 -42.92115878 270.5005491 -42.93159485 267.85847473 C-42.95317664 261.44017953 -42.95312287 255.02206202 -42.9449693 248.6037425 C-42.93865505 243.38381485 -42.93981937 238.16393881 -42.94624138 232.94401169 C-42.94714303 232.19948373 -42.94804469 231.45495577 -42.94897367 230.68786635 C-42.95082498 229.17508045 -42.95268754 227.66229457 -42.95456123 226.1495087 C-42.97111972 211.98057451 -42.96243746 197.81174005 -42.94557565 183.64281188 C-42.93088375 170.69901454 -42.94550328 157.75544944 -42.97434581 144.811682 C-43.00378632 131.49973609 -43.01469834 118.1878972 -43.00516361 104.87592018 C-43.00414113 103.36826255 -43.00314651 101.8606049 -43.0021801 100.35294724 C-43.00170371 99.61127589 -43.00122732 98.86960454 -43.00073649 98.1054583 C-42.99857832 92.89715431 -43.00834465 87.68895232 -43.02295113 82.48067093 C-43.04052614 76.12557977 -43.04028368 69.77078442 -43.01759947 63.41570462 C-43.00650301 60.1775628 -43.00592309 56.94004497 -43.02190018 53.70190811 C-43.09830998 36.88054643 -42.88394963 23.17762275 -30.37203979 10.5146637 C-21.31096215 2.97220242 -11.66025893 -0.09483367 0 0 Z " fill="#222322" transform="translate(42.372039794921875,-0.5146636962890625)"/>
<path d="M0 0 C42.508125 -0.0928125 42.508125 -0.0928125 85.875 -0.1875 C99.25522705 -0.22846802 99.25522705 -0.22846802 112.90576172 -0.27026367 C123.86938477 -0.28381348 123.86938477 -0.28381348 129.01565552 -0.28633118 C132.57992249 -0.28910565 136.14405293 -0.30026542 139.70828247 -0.31672668 C144.27641064 -0.3375399 148.84434469 -0.34343056 153.41251588 -0.33921683 C155.07544175 -0.34009593 156.73837549 -0.34590366 158.40126014 -0.35764539 C178.44115447 -0.49239801 201.56948949 1.57677777 217.03125 15.87890625 C225.06186308 24.57306575 228.64096828 34.93974667 228.25 46.83984375 C226.78659822 59.48454977 221.88742621 68.95249484 212 77 C206.95271378 80.15162849 202.00660972 82.52579397 196 83 C196 83.66 196 84.32 196 85 C197.15757812 85.0928125 198.31515625 85.185625 199.5078125 85.28125 C204.10658957 85.86393711 207.77957838 87.38796846 211.875 89.5 C212.56899902 89.85602295 213.26299805 90.2120459 213.97802734 90.57885742 C225.16315945 96.54590825 232.19340628 104.22481517 236.8046875 116.06640625 C240.7350788 129.82277579 238.64146803 147.16484338 232.375 159.75 C224.23657805 173.52117212 211.12474632 180.90786367 196 185 C180.91003148 188.52181359 165.7450303 189.15089969 150.30761719 189.11352539 C148.63410062 189.11321843 146.96058392 189.11335362 145.28706741 189.11389065 C140.83946882 189.11411473 136.3918976 189.10835436 131.94430542 189.10128021 C127.75795412 189.09554968 123.57160919 189.09531517 119.38525391 189.09460449 C107.17349904 189.08937468 94.96174916 189.07541342 82.75 189.0625 C55.4425 189.041875 28.135 189.02125 0 189 C0 126.63 0 64.26 0 0 Z M69 45 C69 53.58 69 62.16 69 71 C78.64061146 71.06791616 88.28106268 71.12289689 97.92185974 71.15543652 C102.39900641 71.17105796 106.87598017 71.19223151 111.35302734 71.22631836 C115.67781258 71.25903794 120.00243203 71.27687948 124.32733154 71.28463173 C125.97306933 71.2901527 127.61879858 71.30093367 129.26446533 71.31719017 C131.57884971 71.33913256 133.89255873 71.34196002 136.20703125 71.34057617 C138.17893433 71.35056892 138.17893433 71.35056892 140.19067383 71.36076355 C145.64190292 70.84450302 150.20414659 69.43668273 154.5 66 C156.80112625 61.3977475 156.88636648 57.03789495 156 52 C153.47937821 48.56915367 150.94129271 46.52774817 147 45 C144.42408682 44.82001905 141.95965219 44.74706329 139.38574219 44.77294922 C138.62437958 44.77265717 137.86301697 44.77236511 137.07858276 44.77206421 C134.56789664 44.77345494 132.05750914 44.78900396 129.546875 44.8046875 C127.80381431 44.80841854 126.06075152 44.81126509 124.31768799 44.81326294 C119.73423452 44.8208922 115.15090819 44.84053463 110.56750488 44.8626709 C105.88877075 44.88314454 101.21001604 44.89226791 96.53125 44.90234375 C87.35410188 44.9237812 78.17708141 44.9589576 69 45 Z M69 113 C69 122.57 69 132.14 69 142 C79.12760575 142.06797285 89.25505819 142.12292939 99.38284111 142.15543652 C104.08636882 142.171044 108.78973137 142.1921917 113.49316406 142.22631836 C118.03840873 142.25908815 122.58349527 142.27688994 127.12884903 142.28463173 C128.85666515 142.29014377 130.58447334 142.30090692 132.31222153 142.31719017 C147.58495116 142.77924291 147.58495116 142.77924291 161.0625 136.5625 C164.38681478 132.16582562 164.37767814 128.47633297 164 123 C163.00499738 119.82842915 162.14175673 117.78816641 159.35770416 115.8663063 C154.21565559 113.18497634 150.13830342 112.43647804 144.38085938 112.54589844 C143.56039124 112.54531433 142.7399231 112.54473022 141.89459229 112.54412842 C139.21053212 112.54689219 136.52761365 112.57790169 133.84375 112.609375 C131.97188931 112.6168435 130.10002075 112.62253355 128.22814941 112.62652588 C123.32236817 112.6417343 118.41706723 112.68097442 113.51147461 112.7253418 C108.49729915 112.76639828 103.48304542 112.78455899 98.46875 112.8046875 C88.6455893 112.84747379 78.8229099 112.91778404 69 113 Z " fill="#0F1010" transform="translate(406,71)"/>
<path d="M0 0 C0.88681458 -0.00511093 1.77362915 -0.01022186 2.68731689 -0.01548767 C5.61339096 -0.02936611 8.539229 -0.02842809 11.46533203 -0.02612305 C13.50408007 -0.03001117 15.5428273 -0.03434608 17.58157349 -0.03910828 C21.85356269 -0.04656691 26.12546924 -0.04628195 30.39746094 -0.04101562 C35.86389046 -0.03522405 41.32998083 -0.0521463 46.79635429 -0.0753603 C51.00690682 -0.09011435 55.21737801 -0.09096701 59.42795181 -0.08785057 C61.44291988 -0.08836302 63.4578926 -0.09358649 65.47283554 -0.10366249 C68.29461244 -0.11604072 71.11573309 -0.10922662 73.9375 -0.09765625 C74.76474579 -0.10529999 75.59199158 -0.11294373 76.44430542 -0.12081909 C83.13905796 -0.06034369 88.55769391 1.54435005 93.78564453 5.9621582 C94.32576172 6.39915039 94.86587891 6.83614258 95.42236328 7.28637695 C100.29612462 13.06899822 101.68813479 18.75397719 101.55224609 26.16918945 C101.5528302 27.0189183 101.55341431 27.86864716 101.55401611 28.74412537 C101.55125103 31.52556613 101.52023478 34.30590694 101.48876953 37.0871582 C101.48130151 39.02627985 101.47561123 40.96540909 101.47161865 42.90454102 C101.45640648 47.98786559 101.41716296 53.070727 101.37280273 58.15386963 C101.33175446 63.34901669 101.31358728 68.54423918 101.29345703 73.73950195 C101.25066425 83.91808994 101.18246675 94.09633543 101.09814453 104.2746582 C101.68981415 104.26355515 102.28148376 104.25245209 102.89108276 104.24101257 C109.08852942 104.12978816 115.28568934 104.05473119 121.48388672 104 C123.79227224 103.97496503 126.10057936 103.94092666 128.40869141 103.89746094 C131.74026919 103.83632447 135.07079266 103.80833713 138.40283203 103.78637695 C139.42303436 103.76057053 140.44323669 103.7347641 141.49435425 103.70817566 C148.64538433 103.70542066 154.16685103 105.16611348 160.09814453 109.2746582 C165.76513195 115.23968599 168.33124154 120.82667298 168.40454102 129.109375 C168.41286453 129.77679214 168.42118805 130.44420929 168.42976379 131.1318512 C168.45377446 133.3292533 168.46262648 135.52635774 168.46923828 137.72387695 C168.47821423 139.26219262 168.48733624 140.80050744 168.49659729 142.33882141 C168.51306758 145.56249099 168.52078331 148.78605699 168.52368164 152.00976562 C168.52905127 156.11753504 168.56667955 160.22431444 168.6124258 164.33180523 C168.6423457 167.51051782 168.64940847 170.68899682 168.65040779 173.86783791 C168.65458367 175.38076098 168.66691095 176.89368646 168.68792534 178.40646935 C168.80023515 187.19361624 168.56845537 194.97461116 163.09814453 202.2746582 C160.58595317 204.60712929 158.05145887 206.53672372 155.09814453 208.2746582 C154.53171108 208.62299021 153.96527763 208.97132221 153.38167953 209.33020973 C150.35721409 210.58110002 147.86937269 210.53267503 144.59674072 210.54208374 C143.6200284 210.54888041 143.6200284 210.54888041 142.62358451 210.55581439 C140.44348272 210.56846627 138.26363051 210.56683753 136.08349609 210.56518555 C134.51954833 210.57117043 132.95560352 210.57797588 131.3916626 210.58554077 C127.14354812 210.60321488 122.89551421 210.60789682 118.64736652 210.60917234 C115.99191004 210.61059402 113.33647404 210.61486399 110.68102264 210.62016678 C101.41282349 210.63867367 92.14468187 210.64683681 82.87646484 210.64526367 C74.24454223 210.64406298 65.61286996 210.66514931 56.98101068 210.696751 C49.56514317 210.72293084 42.14935732 210.73363021 34.73344398 210.73235285 C30.3065637 210.7318436 25.87990575 210.73750599 21.45307159 210.75870895 C17.28659617 210.77811949 13.12055443 210.77819677 8.95406342 210.76367569 C7.42870956 210.76158977 5.90332836 210.76627558 4.37802124 210.77839661 C-4.63956675 210.84538802 -11.74174062 210.71499279 -18.89013672 204.5637207 C-19.32712891 204.01458008 -19.76412109 203.46543945 -20.21435547 202.8996582 C-20.66423828 202.35567383 -21.11412109 201.81168945 -21.57763672 201.2512207 C-25.0378502 196.08641829 -26.27771416 192.16203048 -26.28953552 185.92532349 C-26.29492106 185.20713625 -26.3003066 184.48894901 -26.30585533 183.74899852 C-26.32010849 181.35389195 -26.31303795 178.95934013 -26.3059082 176.56420898 C-26.31161321 174.84233151 -26.31857798 173.12045783 -26.32670593 171.39859009 C-26.34463926 166.72908107 -26.34346847 162.05975995 -26.33776355 157.39022684 C-26.33467155 153.48870076 -26.34076436 149.58721076 -26.34680229 145.68568981 C-26.36084686 136.47915 -26.35928716 127.27270299 -26.34790039 118.06616211 C-26.33642257 108.57645944 -26.35048936 99.08703949 -26.37729686 89.59737408 C-26.39946869 81.44261059 -26.4060878 73.28793575 -26.40022045 65.13314426 C-26.39685282 60.26589048 -26.39925294 55.39881787 -26.41647148 50.53158951 C-26.43196186 45.95305268 -26.42796189 41.37493386 -26.40916634 36.79641342 C-26.40548606 35.11948475 -26.40857253 33.44252497 -26.41905212 31.765625 C-26.51843606 14.54288337 -26.51843606 14.54288337 -19.93701172 7.0324707 C-19.28603516 6.49364258 -18.63505859 5.95481445 -17.96435547 5.3996582 C-17.31595703 4.84536133 -16.66755859 4.29106445 -15.99951172 3.7199707 C-10.78271336 0.12552863 -6.13022539 -0.01826925 0 0 Z " fill="#242524" transform="translate(94.90185546875,60.725341796875)"/>
<path d="M0 0 C62.37 0 124.74 0 189 0 C189 15.18 189 30.36 189 46 C149.4 46 109.8 46 69 46 C69 53.59 69 61.18 69 69 C107.28 69 145.56 69 185 69 C185 84.84 185 100.68 185 117 C146.72 117 108.44 117 69 117 C69 125.25 69 133.5 69 142 C109.26 142 149.52 142 191 142 C191 157.51 191 173.02 191 189 C127.97 189 64.94 189 0 189 C0 126.63 0 64.26 0 0 Z " fill="#0F1011" transform="translate(890,71)"/>
<path d="M0 0 C62.37 0 124.74 0 189 0 C189 15.18 189 30.36 189 46 C149.4 46 109.8 46 69 46 C69 53.59 69 61.18 69 69 C107.28 69 145.56 69 185 69 C185 84.84 185 100.68 185 117 C146.72 117 108.44 117 69 117 C69 125.25 69 133.5 69 142 C109.26 142 149.52 142 191 142 C191 157.18 191 172.36 191 188 C189.29888291 189.70111709 187.16733433 189.12227496 184.89802688 189.12908131 C184.16165955 189.12616847 183.42529221 189.12325563 182.66661072 189.12025452 C181.88988134 189.12110894 181.11315197 189.12196337 180.31288534 189.12284368 C177.69025678 189.12450084 175.0676911 189.11897329 172.44506836 189.11352539 C170.57302349 189.11324354 168.70097852 189.1134012 166.82893372 189.1139679 C161.7299724 189.11425597 156.63103438 189.10835769 151.5320785 189.10139394 C146.20958367 189.09516199 140.88708837 189.09455673 135.56459045 189.09336853 C125.47815109 189.09025474 115.39172251 189.08204072 105.3052879 189.07201904 C91.68080592 189.05877456 78.05632101 189.05335838 64.43183422 189.04751682 C42.95454807 189.03810085 21.47728466 189.01818226 0 189 C0 126.63 0 64.26 0 0 Z " fill="#0F1011" transform="translate(669,71)"/>
<path d="M0 0 C38.23875 -0.0928125 38.23875 -0.0928125 77.25 -0.1875 C89.27163574 -0.22846802 89.27163574 -0.22846802 101.53613281 -0.27026367 C111.41162109 -0.28381348 111.41162109 -0.28381348 116.05194092 -0.28633118 C119.25529363 -0.2890977 122.45849336 -0.30022454 125.6618042 -0.31672668 C189.39468228 -0.63026176 189.39468228 -0.63026176 211.375 19.5625 C225.22922865 34.4304527 226.68947924 52.46715613 226.27734375 71.79296875 C225.73167891 86.92441329 221.34740137 100.6163118 211 112 C183.27600388 136.79045853 142.31488215 133.32022539 107.65356445 133.1373291 C102.50690482 133.11283967 97.36019509 133.10401503 92.21349335 133.09242249 C84.47556185 133.07331079 76.73794847 133.03488181 69 133 C69 151.48 69 169.96 69 189 C46.23 189 23.46 189 0 189 C0 126.63 0 64.26 0 0 Z M69 49 C69 60.55 69 72.1 69 84 C80.43747815 84.08744704 80.43747815 84.08744704 91.875 84.14648438 C96.54893377 84.16432702 101.22268906 84.18529422 105.89648438 84.22631836 C109.67016285 84.25922949 113.44364957 84.27691889 117.21746063 84.28463173 C118.64777387 84.29011891 120.07807819 84.30083163 121.50830841 84.31719017 C137.19640027 84.77167134 137.19640027 84.77167134 150.6875 78 C154.92507847 72.5026009 154.63050491 66.70466486 154 60 C151.70892959 55.06538681 148.70609835 52.64718032 144 50 C140.36951441 48.75989084 136.83964882 48.87971693 133.02832031 48.88647461 C132.3352327 48.88632858 131.64214508 48.88618256 130.92805481 48.8860321 C128.64471267 48.88672693 126.36145283 48.89449915 124.078125 48.90234375 C122.49200485 48.90420946 120.90588412 48.90563264 119.31976318 48.90663147 C115.15063885 48.91044462 110.9815495 48.92026463 106.81243896 48.93133545 C101.80722273 48.94337668 96.80199477 48.94795754 91.79676819 48.95378876 C84.19782115 48.96347703 76.59895083 48.98264199 69 49 Z " fill="#0F1011" transform="translate(1112,71)"/>
<path d="M0 0 C22.77 0 45.54 0 69 0 C69.02578125 7.06792969 69.0515625 14.13585937 69.078125 21.41796875 C69.10331408 25.91605106 69.12966297 30.41406751 69.16015625 34.91210938 C69.20836599 42.03963403 69.25245779 49.16700608 69.27099609 56.29467773 C69.28622496 62.04611047 69.32078083 67.79714187 69.36830902 73.54839516 C69.38305873 75.73420012 69.3910373 77.92006241 69.39188385 80.10591698 C69.40395697 95.65920943 69.60337289 110.78353294 80.74609375 122.8984375 C91.14754385 132.81853277 105.07720792 134.3881915 118.875 134.3125 C120.46272217 134.30512817 120.46272217 134.30512817 122.08251953 134.29760742 C134.82573818 134.10607608 147.24956236 131.65898009 156.875 122.6875 C168.52754132 109.94082334 167.46498906 92.31966082 167.51171875 76.171875 C167.52858801 73.96941135 167.54674123 71.76695719 167.56611633 69.56451416 C167.61337836 63.80416838 167.64334122 58.04386111 167.66955566 52.28338623 C167.7047555 45.35225153 167.76169987 38.42126465 167.81494904 31.49024963 C167.89318347 20.99351921 167.94400067 10.49697857 168 0 C190.77 0 213.54 0 237 0 C237.08021762 23.69539325 237.08021762 23.69539325 237.09765625 33.90820312 C237.1095452 40.83767821 237.1235069 47.76709972 237.15087891 54.6965332 C237.1728404 60.29219329 237.184617 65.88779581 237.18975449 71.48349571 C237.1934089 73.6029825 237.20054293 75.72246666 237.21146011 77.84192848 C237.36643437 109.21780841 234.36931794 140.06081378 211.5625 163.875 C187.06623199 186.98230436 154.12511447 191.57823931 121.80029297 191.39111328 C118.50316013 191.37501543 115.20725256 191.3910696 111.91015625 191.41015625 C95.22858189 191.42760478 78.61809564 190.3702565 62.625 185.25 C61.80322266 184.99323486 60.98144531 184.73646973 60.13476562 184.47192383 C38.62578366 177.49325823 20.65319162 164.12438627 10 144 C2.29058368 127.80941761 -0.18251716 110.20171804 -0.11352539 92.40966797 C-0.11367142 91.40358994 -0.11381744 90.3975119 -0.1139679 89.36094666 C-0.11327725 86.0713375 -0.10552498 82.78178663 -0.09765625 79.4921875 C-0.09578905 77.19719473 -0.09436657 74.90220156 -0.09336853 72.60720825 C-0.08956712 66.59361656 -0.07975732 60.58004936 -0.06866455 54.56646729 C-0.05659138 47.33678697 -0.05203687 40.10709842 -0.04621124 32.87741089 C-0.03654415 21.91825693 -0.01737098 10.95915664 0 0 Z " fill="#0F1011" transform="translate(1363,71)"/>
<path d="M0 0 C22.77 0 45.54 0 69 0 C69 44.22 69 88.44 69 134 C106.29 134 143.58 134 182 134 C182 152.15 182 170.3 182 189 C121.94 189 61.88 189 0 189 C0 126.63 0 64.26 0 0 Z " fill="#0F1011" transform="translate(1634,71)"/>
<path d="M0 0 C1.29522835 -0.01073296 1.29522835 -0.01073296 2.61662292 -0.02168274 C3.55594162 -0.02437164 4.49526031 -0.02706055 5.46304321 -0.02983093 C6.45860733 -0.03640213 7.45417145 -0.04297333 8.47990417 -0.04974365 C11.77327552 -0.06944917 15.06660137 -0.0811316 18.36001587 -0.09111023 C20.04781096 -0.09722352 20.04781096 -0.09722352 21.76970291 -0.10346031 C27.7223314 -0.12430676 33.67493691 -0.13861612 39.62759399 -0.147995 C45.77687263 -0.15907185 51.92579066 -0.19349086 58.07494164 -0.23316669 C62.80357541 -0.25929716 67.53212266 -0.26768355 72.2608223 -0.27127647 C74.52783272 -0.27614963 76.79483909 -0.28778423 79.06177902 -0.30631447 C82.23358652 -0.33063501 85.40445247 -0.32975382 88.57632446 -0.32279968 C89.5115947 -0.33560974 90.44686493 -0.3484198 91.41047668 -0.36161804 C96.97897878 -0.31712887 100.33434993 0.28495969 104.64907837 4.14717102 C108.19973532 8.43493481 109.15147957 11.35698578 109.16665649 16.88349915 C109.17366577 17.52822678 109.18067505 18.17295441 109.18789673 18.83721924 C109.20538686 20.95140179 109.19388804 23.06422678 109.18032837 25.17842102 C109.18302592 26.65763097 109.18691052 28.13683918 109.19192505 29.61604309 C109.19780786 32.70943662 109.18929716 35.80236672 109.17056274 38.89570618 C109.14777311 42.85021607 109.16090285 46.80363995 109.1848526 50.75811005 C109.19934404 53.81060388 109.19468946 56.8628425 109.18434143 59.91534424 C109.18168334 61.37291596 109.18491149 62.83051125 109.19425964 64.28805542 C109.20448158 66.329604 109.18885018 68.36942238 109.16665649 70.4108429 C109.16347412 71.5696698 109.16029175 72.7284967 109.15701294 73.92243958 C108.38706257 78.81063445 106.220978 81.77066735 102.53675842 84.99691772 C98.19347224 86.72698447 94.08093381 86.5728719 89.44619751 86.55122375 C88.42122665 86.55808701 87.3962558 86.56495026 86.34022522 86.57202148 C82.95475379 86.5903109 79.56974482 86.58644879 76.18423462 86.58076477 C73.82920684 86.58532553 71.47418039 86.59063078 69.11915588 86.59664917 C64.18384392 86.6055845 59.24869373 86.60315222 54.31338501 86.59321594 C47.99033182 86.58172595 41.66783704 86.60193667 35.34485722 86.63113308 C30.48151607 86.64948328 25.61830902 86.64920492 20.75494194 86.64349556 C18.4237534 86.6433422 16.09255585 86.64939847 13.76140022 86.66178703 C10.50102886 86.67667232 7.24169283 86.66603708 3.98135376 86.64888 C3.01960236 86.65854797 2.05785095 86.66821594 1.06695557 86.67817688 C-4.53005596 86.6165346 -8.05791689 86.10560102 -12.35092163 82.14717102 C-15.13787067 77.87498515 -15.73926969 74.49294534 -15.80258179 69.44258118 C-15.82494904 68.12746552 -15.84731628 66.81234985 -15.87036133 65.4573822 C-15.87826752 64.0336729 -15.88477391 62.60995524 -15.88998413 61.18623352 C-15.90217937 59.71181503 -15.91466584 58.23739892 -15.9274292 56.76298523 C-15.94985128 53.67810013 -15.95945358 50.59346111 -15.96176147 47.50849915 C-15.96704328 43.57162285 -16.01838452 39.6368146 -16.08127785 35.70049477 C-16.12230801 32.65650013 -16.13140486 29.61299853 -16.1318779 26.56875229 C-16.13723433 25.11832795 -16.15397777 23.667896 -16.18272781 22.21774673 C-16.41358133 9.51582662 -16.41358133 9.51582662 -12.05160522 4.25801086 C-8.38627219 0.60902407 -5.05351907 0.02886883 0 0 Z " fill="#1B1C1C" transform="translate(144.35092163085938,174.8528289794922)"/>
<path d="M0 0 C0.88681458 -0.00511093 1.77362915 -0.01022186 2.68731689 -0.01548767 C5.61339096 -0.02936611 8.539229 -0.02842809 11.46533203 -0.02612305 C13.50408007 -0.03001117 15.5428273 -0.03434608 17.58157349 -0.03910828 C21.85356269 -0.04656691 26.12546924 -0.04628195 30.39746094 -0.04101562 C35.86389046 -0.03522405 41.32998083 -0.0521463 46.79635429 -0.0753603 C51.00690682 -0.09011435 55.21737801 -0.09096701 59.42795181 -0.08785057 C61.44291988 -0.08836302 63.4578926 -0.09358649 65.47283554 -0.10366249 C68.29461244 -0.11604072 71.11573309 -0.10922662 73.9375 -0.09765625 C74.76474579 -0.10529999 75.59199158 -0.11294373 76.44430542 -0.12081909 C83.13905796 -0.06034369 88.55769391 1.54435005 93.78564453 5.9621582 C94.32576172 6.39915039 94.86587891 6.83614258 95.42236328 7.28637695 C100.29612462 13.06899822 101.68813479 18.75397719 101.55224609 26.16918945 C101.5528302 27.0189183 101.55341431 27.86864716 101.55401611 28.74412537 C101.55125103 31.52556613 101.52023478 34.30590694 101.48876953 37.0871582 C101.48130151 39.02627985 101.47561123 40.96540909 101.47161865 42.90454102 C101.45640648 47.98786559 101.41716296 53.070727 101.37280273 58.15386963 C101.33175446 63.34901669 101.31358728 68.54423918 101.29345703 73.73950195 C101.25066425 83.91808994 101.18246675 94.09633543 101.09814453 104.2746582 C101.68981415 104.26355515 102.28148376 104.25245209 102.89108276 104.24101257 C109.08852942 104.12978816 115.28568934 104.05473119 121.48388672 104 C123.79227224 103.97496503 126.10057936 103.94092666 128.40869141 103.89746094 C131.74026919 103.83632447 135.07079266 103.80833713 138.40283203 103.78637695 C139.42303436 103.76057053 140.44323669 103.7347641 141.49435425 103.70817566 C148.64538433 103.70542066 154.16685103 105.16611348 160.09814453 109.2746582 C165.76513195 115.23968599 168.33124154 120.82667298 168.40454102 129.109375 C168.41286453 129.77679214 168.42118805 130.44420929 168.42976379 131.1318512 C168.45377446 133.3292533 168.46262648 135.52635774 168.46923828 137.72387695 C168.47821423 139.26219262 168.48733624 140.80050744 168.49659729 142.33882141 C168.51306758 145.56249099 168.52078331 148.78605699 168.52368164 152.00976562 C168.52905127 156.11753504 168.56667955 160.22431444 168.6124258 164.33180523 C168.6423457 167.51051782 168.64940847 170.68899682 168.65040779 173.86783791 C168.65458367 175.38076098 168.66691095 176.89368646 168.68792534 178.40646935 C168.80023515 187.19361624 168.56845537 194.97461116 163.09814453 202.2746582 C160.58595317 204.60712929 158.05145887 206.53672372 155.09814453 208.2746582 C154.53171108 208.62299021 153.96527763 208.97132221 153.38167953 209.33020973 C150.35721409 210.58110002 147.86937269 210.53267503 144.59674072 210.54208374 C143.6200284 210.54888041 143.6200284 210.54888041 142.62358451 210.55581439 C140.44348272 210.56846627 138.26363051 210.56683753 136.08349609 210.56518555 C134.51954833 210.57117043 132.95560352 210.57797588 131.3916626 210.58554077 C127.14354812 210.60321488 122.89551421 210.60789682 118.64736652 210.60917234 C115.99191004 210.61059402 113.33647404 210.61486399 110.68102264 210.62016678 C101.41282349 210.63867367 92.14468187 210.64683681 82.87646484 210.64526367 C74.24454223 210.64406298 65.61286996 210.66514931 56.98101068 210.696751 C49.56514317 210.72293084 42.14935732 210.73363021 34.73344398 210.73235285 C30.3065637 210.7318436 25.87990575 210.73750599 21.45307159 210.75870895 C17.28659617 210.77811949 13.12055443 210.77819677 8.95406342 210.76367569 C7.42870956 210.76158977 5.90332836 210.76627558 4.37802124 210.77839661 C-4.63956675 210.84538802 -11.74174062 210.71499279 -18.89013672 204.5637207 C-19.32712891 204.01458008 -19.76412109 203.46543945 -20.21435547 202.8996582 C-20.66423828 202.35567383 -21.11412109 201.81168945 -21.57763672 201.2512207 C-25.0378502 196.08641829 -26.27771416 192.16203048 -26.28953552 185.92532349 C-26.29492106 185.20713625 -26.3003066 184.48894901 -26.30585533 183.74899852 C-26.32010849 181.35389195 -26.31303795 178.95934013 -26.3059082 176.56420898 C-26.31161321 174.84233151 -26.31857798 173.12045783 -26.32670593 171.39859009 C-26.34463926 166.72908107 -26.34346847 162.05975995 -26.33776355 157.39022684 C-26.33467155 153.48870076 -26.34076436 149.58721076 -26.34680229 145.68568981 C-26.36084686 136.47915 -26.35928716 127.27270299 -26.34790039 118.06616211 C-26.33642257 108.57645944 -26.35048936 99.08703949 -26.37729686 89.59737408 C-26.39946869 81.44261059 -26.4060878 73.28793575 -26.40022045 65.13314426 C-26.39685282 60.26589048 -26.39925294 55.39881787 -26.41647148 50.53158951 C-26.43196186 45.95305268 -26.42796189 41.37493386 -26.40916634 36.79641342 C-26.40548606 35.11948475 -26.40857253 33.44252497 -26.41905212 31.765625 C-26.51843606 14.54288337 -26.51843606 14.54288337 -19.93701172 7.0324707 C-19.28603516 6.49364258 -18.63505859 5.95481445 -17.96435547 5.3996582 C-17.31595703 4.84536133 -16.66755859 4.29106445 -15.99951172 3.7199707 C-10.78271336 0.12552863 -6.13022539 -0.01826925 0 0 Z M-14.90185547 17.2746582 C-16.05610346 20.73740217 -16.03653663 23.43223735 -16.04902649 27.08686829 C-16.05270318 27.78348562 -16.05637987 28.48010295 -16.06016797 29.1978299 C-16.07120205 31.53765575 -16.07504815 33.87743719 -16.07885742 36.21728516 C-16.08512222 37.89270163 -16.09176903 39.56811671 -16.09877014 41.24353027 C-16.1161767 45.79939048 -16.12673071 50.3552402 -16.13497567 54.91112542 C-16.14012599 57.75701279 -16.14620167 60.6028969 -16.1524868 63.44878197 C-16.17153693 72.35162981 -16.18576911 81.25446936 -16.19409877 90.15733367 C-16.20387507 100.43678283 -16.23020557 110.71601689 -16.27059966 120.99539024 C-16.30074654 128.93942967 -16.31556624 136.88340738 -16.31887978 144.82750291 C-16.32123165 149.57292261 -16.33021 154.31811246 -16.35534096 159.06347084 C-16.37860214 163.52784126 -16.38286285 167.99183014 -16.37257957 172.45624542 C-16.37208365 174.0937114 -16.3784209 175.73119604 -16.39213562 177.36860466 C-16.40983106 179.60669274 -16.40276147 181.84340801 -16.38960266 184.08149719 C-16.39199101 185.33308278 -16.39437937 186.58466837 -16.3968401 187.87418079 C-15.67594923 192.82660348 -13.47693599 195.97758323 -9.6472168 199.13134766 C-6.05931272 200.62553661 -2.79367841 200.64996581 1.02392578 200.56762695 C2.14531197 200.56125969 2.14531197 200.56125969 3.28935242 200.55476379 C5.66349185 200.53804876 8.0367642 200.50041167 10.41064453 200.4621582 C12.0258666 200.44710201 13.64110204 200.43341524 15.25634766 200.42114258 C19.20394441 200.388169 23.15089775 200.33643789 27.09814453 200.2746582 C26.77579834 199.28981445 26.45345215 198.3049707 26.12133789 197.2902832 C24.39999174 190.34757417 24.74795784 183.13331721 24.72705078 176.0246582 C24.71806963 174.44099856 24.70894754 172.85733971 24.69969177 171.27368164 C24.68326674 167.96539253 24.67551296 164.65720388 24.67260742 161.34887695 C24.66721533 157.12554893 24.62947434 152.90317352 24.58386326 148.68011475 C24.55402219 145.41313272 24.54688243 142.14637888 24.54588127 138.87927246 C24.54169671 137.32283136 24.5293337 135.76638846 24.50836372 134.21008301 C24.31341144 118.49853074 24.31341144 118.49853074 30.09814453 112.2746582 C32.23095703 110.21606445 32.23095703 110.21606445 34.22314453 108.8371582 C35.21701172 108.1275293 35.21701172 108.1275293 36.23095703 107.40356445 C39.51284978 105.41932386 42.28245473 105.13538825 46.02856445 105.06933594 C47.02937546 105.04939072 48.03018646 105.0294455 49.06132507 105.00889587 C50.67863274 104.98382713 50.67863274 104.98382713 52.32861328 104.95825195 C53.43417068 104.93747086 54.53972809 104.91668976 55.67878723 104.89527893 C59.21434244 104.82983488 62.74997259 104.77092217 66.28564453 104.7121582 C68.68083461 104.66896811 71.07601708 104.62535366 73.47119141 104.58129883 C79.34676295 104.47415873 85.22240925 104.37238264 91.09814453 104.2746582 C91.19088243 93.29573165 91.26192891 82.31689851 91.30539322 71.33765984 C91.32625545 66.23936997 91.35454836 61.14134837 91.39990234 56.04321289 C91.44340849 51.12191257 91.4672919 46.20087005 91.4776535 41.27939224 C91.48503629 39.40311755 91.49945326 37.52685674 91.52106476 35.65069199 C91.5501623 33.01966772 91.55409791 30.38970457 91.55224609 27.75854492 C91.5666272 26.9853038 91.5810083 26.21206268 91.5958252 25.41539001 C91.55621999 20.20458517 90.55019358 17.18367928 87.09814453 13.2746582 C82.29838598 10.00067842 78.11281435 9.84308134 72.51000977 9.88647461 C71.66860443 9.88121765 70.8271991 9.87596069 69.96029663 9.87054443 C67.19225238 9.85739173 64.4247879 9.86606487 61.65673828 9.8762207 C59.72672923 9.8741988 57.79672092 9.87128639 55.86671448 9.86752319 C51.82765406 9.86310641 47.78879305 9.86951084 43.74975586 9.88354492 C38.57571028 9.90064786 33.40213121 9.89078447 28.22810268 9.87282753 C24.24494416 9.86198207 20.26189608 9.86543935 16.27873421 9.87321091 C14.37097175 9.87521021 12.46319923 9.87276314 10.55544853 9.86577225 C7.88899066 9.85814399 5.22328657 9.86978062 2.55688477 9.88647461 C1.77077316 9.88040192 0.98466156 9.87432922 0.17472839 9.86807251 C-6.65037717 9.94713869 -10.47578177 12.21628826 -14.90185547 17.2746582 Z M36.82885742 118.95410156 C32.36858685 124.51320819 33.29854517 131.65025347 33.40673828 138.40356445 C33.41032025 139.88133888 33.41167178 141.35912023 33.41090393 142.8368988 C33.41558044 145.92458254 33.44030478 149.01121381 33.48071289 152.09863281 C33.53172738 156.0451786 33.54315361 159.99057244 33.54087734 163.9374094 C33.54169519 166.98564028 33.55818153 170.03362217 33.57988167 173.08176994 C33.5893889 174.53653012 33.59533148 175.99131833 33.59756279 177.44610786 C33.60410744 179.48224234 33.63279611 181.51826877 33.66235352 183.55419922 C33.67378891 184.71000992 33.6852243 185.86582062 33.69700623 187.05665588 C34.33081976 192.14121994 35.87177129 195.14478163 39.64086914 198.61730957 C44.33813191 200.86908334 48.26831646 200.83563304 53.41455078 200.79223633 C54.43966766 200.79924561 55.46478455 200.80625488 56.52096558 200.81347656 C59.90113613 200.8310459 63.28046583 200.81943698 66.66064453 200.8059082 C69.01424317 200.80860341 71.36784072 200.81248606 73.72143555 200.81750488 C78.65082413 200.82339852 83.57992252 200.81484092 88.50927734 200.79614258 C94.82447916 200.77335356 101.13900098 200.7864773 107.45417786 200.81043243 C112.31324375 200.82489376 117.17214871 200.82028278 122.03121948 200.80992126 C124.35960979 200.80725493 126.68801476 200.81052043 129.01638794 200.81983948 C132.27189786 200.83001011 135.52631002 200.81449545 138.78173828 200.79223633 C139.74191864 200.80033325 140.702099 200.80843018 141.69137573 200.81677246 C147.30111427 200.745796 150.74927529 200.17444354 155.09814453 196.2746582 C158.13787596 192.43573254 158.47970633 189.48493427 158.50219727 184.65185547 C158.51249214 183.68498306 158.51249214 183.68498306 158.522995 182.69857788 C158.54121608 180.57917924 158.53743254 178.46052421 158.53173828 176.34106445 C158.5363025 174.86042542 158.54160879 173.37978851 158.54762268 171.89915466 C158.55654462 168.79986959 158.55414146 165.70084231 158.54418945 162.6015625 C158.53270292 158.63921587 158.55290997 154.67776087 158.58210659 150.71553135 C158.60049576 147.65877169 158.60017077 144.60222462 158.59446907 141.54542351 C158.59431617 140.08504931 158.60033433 138.62466041 158.61276054 137.16433907 C158.62772099 135.11795035 158.61695975 133.07319477 158.59985352 131.02685547 C158.59968735 129.86501236 158.59952118 128.70316925 158.59934998 127.50611877 C157.788922 122.28098387 155.35252838 119.39658623 151.47669983 115.93002319 C146.88791296 113.68169026 143.08577839 113.72809708 138.04125977 113.78881836 C137.0437973 113.78502167 136.04633484 113.78122498 135.01864624 113.77731323 C131.73102079 113.76992116 128.4442848 113.7912707 125.15673828 113.8137207 C122.86800744 113.81610586 120.57927463 113.8170103 118.2905426 113.8164978 C113.49817618 113.81962344 108.70610941 113.83617203 103.91381836 113.86303711 C97.7713055 113.89703551 91.62912147 113.90466496 85.48652554 113.90314674 C80.76220054 113.90369059 76.03794741 113.91465979 71.31364632 113.92914963 C69.04863084 113.93551277 66.78360723 113.93945539 64.5185833 113.94093704 C61.35412601 113.94527401 58.19001715 113.96278342 55.02563477 113.98413086 C54.08991135 113.98322449 53.15418793 113.98231812 52.19010925 113.98138428 C46.15956948 114.04086246 41.30063155 114.50646138 36.82885742 118.95410156 Z " fill="#E19D11" transform="translate(94.90185546875,60.725341796875)"/>
</svg>
