<svg width="820" height="820" viewBox="0 0 820 820" fill="none" xmlns="http://www.w3.org/2000/svg">
<rect x="60" y="60" width="700" height="700" rx="200" fill="#531EDC"/>
<path d="M559.68 526.895C572.062 526.895 576.797 522.153 576.797 509.752V383.922C576.797 329.943 542.199 293.105 487.936 293.105C452.61 293.105 424.203 308.789 410 334.684C395.433 308.424 367.39 293.105 332.064 293.105C277.801 293.105 243.203 329.943 243.203 383.922V509.752C243.203 522.153 247.938 526.895 260.32 526.895H275.98C288.362 526.895 293.097 522.153 293.097 509.752V382.463C293.097 354.379 309.849 333.225 338.984 333.225C367.754 333.225 385.235 354.379 385.235 382.463V509.752C385.235 522.153 389.97 526.895 402.352 526.895H417.648C430.03 526.895 434.765 522.153 434.765 509.752V382.463C434.765 354.379 452.245 333.225 481.016 333.225C510.151 333.225 526.903 354.379 526.903 382.463V509.752C526.903 522.153 531.638 526.895 544.02 526.895H559.68Z" fill="white"/>
<path d="M597.988 503.704V484.46C597.988 467.684 604.261 461.27 621.15 461.27H640.452C657.34 461.27 663.613 467.684 663.613 484.46V503.704C663.613 520.48 657.34 526.895 640.452 526.895H621.15C604.261 526.895 597.988 520.48 597.988 503.704Z" fill="#FF550A"/>
</svg>
