<svg width="20" height="20" viewBox="0 0 20 20" fill="none" xmlns="http://www.w3.org/2000/svg">
<g clip-path="url(#clip0_1387_14054)">
<rect width="20" height="20" rx="2" fill="white"/>
<mask id="mask0_1387_14054" style="mask-type:luminance" maskUnits="userSpaceOnUse" x="0" y="0" width="20" height="20">
<rect width="20" height="20" rx="2" fill="white"/>
</mask>
<g mask="url(#mask0_1387_14054)">
<path d="M20 20H0V18.667H20V20ZM20 17.333H0V16H20V17.333ZM20 14.667H0V13.333H20V14.667ZM20 12H0V10.667H20V12ZM20 9.33301H0V8H20V9.33301ZM20 6.66699H0V5.33301H20V6.66699ZM20 4H0V2.66699H20V4ZM20 1.33301H0V0H20V1.33301Z" fill="#D02F44"/>
<rect width="8.57143" height="9.33333" fill="#46467F"/>
<g filter="url(#filter0_d_1387_14054)">
<path d="M1.42871 6.66626C1.69153 6.66654 1.9043 6.96524 1.9043 7.33325C1.9043 7.70127 1.69153 7.99996 1.42871 8.00024C1.16572 8.00024 0.952148 7.70144 0.952148 7.33325C0.952149 6.96506 1.16572 6.66626 1.42871 6.66626ZM3.33301 6.66626C3.596 6.66626 3.80957 6.96506 3.80957 7.33325C3.80957 7.70144 3.596 8.00024 3.33301 8.00024C3.07006 8.00017 2.85645 7.7014 2.85645 7.33325C2.85645 6.96511 3.07006 6.66633 3.33301 6.66626ZM5.23828 6.66626C5.50108 6.66658 5.71387 6.96526 5.71387 7.33325C5.71387 7.70125 5.50108 7.99993 5.23828 8.00024C4.97529 8.00024 4.76172 7.70144 4.76172 7.33325C4.76172 6.96506 4.97529 6.66626 5.23828 6.66626ZM7.14258 6.66626C7.40557 6.66626 7.61914 6.96506 7.61914 7.33325C7.61914 7.70144 7.40557 8.00024 7.14258 8.00024C6.87961 8.00021 6.66602 7.70142 6.66602 7.33325C6.66602 6.96508 6.87961 6.6663 7.14258 6.66626ZM2.38086 5.33325C2.64379 5.33336 2.85645 5.63212 2.85645 6.00024C2.85632 6.36822 2.64371 6.66615 2.38086 6.66626C2.11794 6.66626 1.90442 6.36828 1.9043 6.00024C1.9043 5.63205 2.11787 5.33325 2.38086 5.33325ZM4.28516 5.33325C4.54815 5.33325 4.76172 5.63205 4.76172 6.00024C4.76159 6.36828 4.54807 6.66626 4.28516 6.66626C4.02239 6.66601 3.8097 6.36813 3.80957 6.00024C3.80957 5.63221 4.02231 5.3335 4.28516 5.33325ZM6.19043 5.33325C6.45334 5.33339 6.66602 5.63214 6.66602 6.00024C6.66589 6.3682 6.45326 6.66612 6.19043 6.66626C5.92751 6.66626 5.71399 6.36828 5.71387 6.00024C5.71387 5.63205 5.92744 5.33325 6.19043 5.33325ZM1.42871 4.00024C1.69145 4.00053 1.90417 4.29839 1.9043 4.66626C1.9043 5.03428 1.69153 5.33297 1.42871 5.33325C1.16572 5.33325 0.952148 5.03445 0.952148 4.66626C0.952274 4.29822 1.1658 4.00024 1.42871 4.00024ZM3.33301 4.00024C3.59592 4.00024 3.80944 4.29822 3.80957 4.66626C3.80957 5.03445 3.596 5.33325 3.33301 5.33325C3.07006 5.33318 2.85645 5.03441 2.85645 4.66626C2.85657 4.29826 3.07014 4.00031 3.33301 4.00024ZM5.23828 4.00024C5.501 4.00056 5.71374 4.29841 5.71387 4.66626C5.71387 5.03425 5.50108 5.33294 5.23828 5.33325C4.97529 5.33325 4.76172 5.03445 4.76172 4.66626C4.76184 4.29822 4.97537 4.00024 5.23828 4.00024ZM7.14258 4.00024C7.40549 4.00024 7.61902 4.29822 7.61914 4.66626C7.61914 5.03445 7.40557 5.33325 7.14258 5.33325C6.87961 5.33322 6.66602 5.03443 6.66602 4.66626C6.66614 4.29824 6.87968 4.00028 7.14258 4.00024ZM2.38086 2.66626C2.64379 2.66637 2.85645 2.96513 2.85645 3.33325C2.85645 3.70138 2.64379 4.00014 2.38086 4.00024C2.11787 4.00024 1.9043 3.70144 1.9043 3.33325C1.9043 2.96506 2.11787 2.66626 2.38086 2.66626ZM4.28516 2.66626C4.54815 2.66626 4.76172 2.96506 4.76172 3.33325C4.76172 3.70144 4.54815 4.00024 4.28516 4.00024C4.02231 4 3.80957 3.70129 3.80957 3.33325C3.80957 2.96521 4.02231 2.66651 4.28516 2.66626ZM6.19043 2.66626C6.45334 2.6664 6.66602 2.96515 6.66602 3.33325C6.66602 3.70135 6.45334 4.0001 6.19043 4.00024C5.92744 4.00024 5.71387 3.70144 5.71387 3.33325C5.71387 2.96506 5.92744 2.66626 6.19043 2.66626ZM1.42871 1.33325C1.69153 1.33353 1.9043 1.63223 1.9043 2.00024C1.90417 2.36811 1.69146 2.66598 1.42871 2.66626C1.1658 2.66626 0.952274 2.36828 0.952148 2.00024C0.952148 1.63205 1.16572 1.33325 1.42871 1.33325ZM3.33301 1.33325C3.596 1.33325 3.80957 1.63205 3.80957 2.00024C3.80944 2.36828 3.59592 2.66626 3.33301 2.66626C3.07014 2.66619 2.85657 2.36824 2.85645 2.00024C2.85645 1.6321 3.07006 1.33332 3.33301 1.33325ZM5.23828 1.33325C5.50108 1.33357 5.71387 1.63225 5.71387 2.00024C5.71374 2.36809 5.501 2.66594 5.23828 2.66626C4.97537 2.66626 4.76184 2.36828 4.76172 2.00024C4.76172 1.63205 4.97529 1.33325 5.23828 1.33325ZM7.14258 1.33325C7.40557 1.33325 7.61914 1.63205 7.61914 2.00024C7.61902 2.36828 7.40549 2.66626 7.14258 2.66626C6.87968 2.66622 6.66614 2.36826 6.66602 2.00024C6.66602 1.63208 6.87961 1.33329 7.14258 1.33325Z" fill="url(#paint0_linear_1387_14054)"/>
</g>
</g>
</g>
<defs>
<filter id="filter0_d_1387_14054" x="0.952148" y="1.33325" width="6.66699" height="7.66699" filterUnits="userSpaceOnUse" color-interpolation-filters="sRGB">
<feFlood flood-opacity="0" result="BackgroundImageFix"/>
<feColorMatrix in="SourceAlpha" type="matrix" values="0 0 0 0 0 0 0 0 0 0 0 0 0 0 0 0 0 0 127 0" result="hardAlpha"/>
<feOffset dy="1"/>
<feColorMatrix type="matrix" values="0 0 0 0 0 0 0 0 0 0 0 0 0 0 0 0 0 0 0.06 0"/>
<feBlend mode="normal" in2="BackgroundImageFix" result="effect1_dropShadow_1387_14054"/>
<feBlend mode="normal" in="SourceGraphic" in2="effect1_dropShadow_1387_14054" result="shape"/>
</filter>
<linearGradient id="paint0_linear_1387_14054" x1="0.952148" y1="1.33325" x2="0.952148" y2="8.00024" gradientUnits="userSpaceOnUse">
<stop stop-color="white"/>
<stop offset="1" stop-color="#F0F0F0"/>
</linearGradient>
<clipPath id="clip0_1387_14054">
<rect width="20" height="20" rx="10" fill="white"/>
</clipPath>
</defs>
</svg>
