<svg width="20" height="20" viewBox="0 0 20 20" fill="none" xmlns="http://www.w3.org/2000/svg">
<path d="M4.5 1.625H15.5C16.4904 1.62518 17.291 2.42658 17.291 3.41699V5.25C17.291 5.59426 17.1855 5.98876 17.0127 6.36426C16.842 6.73493 16.6218 7.04987 16.4268 7.24707L12.835 10.4258C12.586 10.6375 12.3937 10.9411 12.2637 11.2432C12.1301 11.5536 12.041 11.9104 12.041 12.25V15.833C12.041 16.1055 11.9531 16.4249 11.7949 16.7178C11.6357 17.0125 11.4294 17.2374 11.2344 17.3545L11.2275 17.3584L11.2207 17.3633L10.0752 18.1016C9.78151 18.2838 9.44897 18.375 9.11621 18.375C8.80315 18.375 8.49503 18.2973 8.20117 18.1377C7.62376 17.8161 7.28325 17.2404 7.2832 16.5918V12.1748C7.28316 11.8743 7.18845 11.545 7.07617 11.2695C6.9619 10.9892 6.80527 10.7076 6.63672 10.501L6.62598 10.4863L6.61328 10.4736L3.49609 7.17383L3.49121 7.16797L3.48633 7.16309C3.27557 6.95229 3.07631 6.651 2.93066 6.32129C2.78401 5.98924 2.70807 5.66524 2.70801 5.41699V3.5C2.70801 2.42629 3.50904 1.625 4.5 1.625ZM4.5 1.875C3.60592 1.875 2.95801 2.62645 2.95801 3.5V5.41699C2.95809 5.67398 3.05241 5.97659 3.16602 6.23047C3.28191 6.48943 3.45141 6.77136 3.66211 6.98535V6.98633L6.82324 10.3135C7.19536 10.7803 7.54102 11.538 7.54102 12.167V16.583C7.54102 17.3952 8.11129 17.7956 8.3418 17.917V17.916C8.8345 18.1829 9.44797 18.1931 9.93652 17.8926L9.94434 17.8877L11.1025 17.1465L11.1016 17.1455C11.326 17.0055 11.4924 16.77 11.5967 16.5703C11.7054 16.3619 11.7998 16.0922 11.7998 15.833V12.25C11.7998 11.4905 12.1784 10.6529 12.6787 10.2324L12.6797 10.2334L12.6895 10.2246L16.2559 7.06641L16.2676 7.05566L16.2783 7.04492C16.4757 6.84742 16.6626 6.55145 16.7988 6.25195C16.9346 5.95358 17.0498 5.58699 17.0498 5.24121V3.41699C17.0498 2.56585 16.359 1.875 15.5078 1.875H4.5Z" fill="#333333" stroke="#0095EB"/>
<path d="M9.16699 1.63965C9.22997 1.67923 9.24292 1.75588 9.20996 1.80859L9.20898 1.81055L5.10059 8.39355L5.09766 8.39844C5.07135 8.44155 5.03309 8.45801 5 8.45801C4.98673 8.458 4.96491 8.45525 4.92383 8.43555C4.87137 8.39503 4.85738 8.31858 4.88965 8.2666L4.89062 8.26465L8.99902 1.68164L8.99805 1.68066C9.03783 1.61894 9.11467 1.60707 9.16699 1.63965Z" fill="#333333" stroke="#0095EB"/>
</svg>
