<svg width="22" height="22" viewBox="0 0 22 22" fill="none" xmlns="http://www.w3.org/2000/svg">
<g clip-path="url(#clip0_1732_21231)">
<path d="M9.16309 20.1582V14.1382" stroke="#10B981" stroke-width="1.83256" stroke-linecap="round" stroke-linejoin="round"/>
<path d="M10.9951 10.0791H11.0051" stroke="#10B981" stroke-width="1.83256" stroke-linecap="round" stroke-linejoin="round"/>
<path d="M10.9951 6.41394H11.0051" stroke="#10B981" stroke-width="1.83256" stroke-linecap="round" stroke-linejoin="round"/>
<path d="M12.8281 14.1382V20.1582" stroke="#10B981" stroke-width="1.83256" stroke-linecap="round" stroke-linejoin="round"/>
<path d="M13.7438 14.6605C12.9508 14.0658 11.9862 13.7443 10.9949 13.7443C10.0037 13.7443 9.03912 14.0658 8.24609 14.6605" stroke="#10B981" stroke-width="1.83256" stroke-linecap="round" stroke-linejoin="round"/>
<path d="M14.6602 10.0791H14.6702" stroke="#10B981" stroke-width="1.83256" stroke-linecap="round" stroke-linejoin="round"/>
<path d="M14.6602 6.41394H14.6702" stroke="#10B981" stroke-width="1.83256" stroke-linecap="round" stroke-linejoin="round"/>
<path d="M7.33008 10.0791H7.34008" stroke="#10B981" stroke-width="1.83256" stroke-linecap="round" stroke-linejoin="round"/>
<path d="M7.33008 6.41394H7.34008" stroke="#10B981" stroke-width="1.83256" stroke-linecap="round" stroke-linejoin="round"/>
<path d="M16.493 1.83252H5.4976C4.48551 1.83252 3.66504 2.65299 3.66504 3.66508V18.3256C3.66504 19.3377 4.48551 20.1582 5.4976 20.1582H16.493C17.5051 20.1582 18.3256 19.3377 18.3256 18.3256V3.66508C18.3256 2.65299 17.5051 1.83252 16.493 1.83252Z" stroke="#10B981" stroke-width="1.83256" stroke-linecap="round" stroke-linejoin="round"/>
</g>
<defs>
<clipPath id="clip0_1732_21231">
<rect width="21.9908" height="21.9908" fill="white"/>
</clipPath>
</defs>
</svg>




































