<svg width="1024" height="1024" viewBox="0 0 1024 1024" fill="none" xmlns="http://www.w3.org/2000/svg">
  <!-- Oq fon -->
  <rect width="1024" height="1024" fill="white"/>
  
  <!-- KLIRO logotipini kattalashtirib, markazlashtirilgan holda ko'rsatish -->
  <g transform="translate(128, 480) scale(3.2)">
    <path d="M0.514436 23.2881L0.51416 0H10.4206V18.2482L28.495 0H41.1818L17.0247 25.5474L43.0935 53.8755H31.2756L0.514436 23.2881Z" fill="#444444"/>
    <path d="M0.51416 28.1073L26.2354 53.8754L9.20376 49.0092L0.51416 58.4312V28.1073Z" fill="#0D92F4"/>
    <path d="M54.2148 47.4452L64.2948 36.8439V0H54.2148V47.4452Z" fill="#444444"/>
    <path d="M93.4919 43.6379H64.2948L54.2148 53.8761H93.4919V43.6379Z" fill="#444444"/>
    <path d="M104.474 53.7971V13.0396L113.528 18.69V53.7837L104.474 53.7971Z" fill="#444444"/>
    <path d="M113.525 -0.000200272V8.69275H104.473V-0.000200272H113.525Z" fill="#0D92F4"/>
    <path d="M124.832 0.347656L130.338 9.41868H147.457C150.666 9.597 157.139 11.4515 157.353 17.4429C157.567 23.4343 152.628 26.1804 150.131 26.8045H140.235L155.766 54.2232H166.889L155.748 34.8287C177.414 21.1875 162.402 0.347656 150.9 0.347656H124.832Z" fill="#444444"/>
    <path d="M124.755 54.2245L124.831 0.347656L133.882 8.85966V45.3663L124.755 54.2245Z" fill="#444444"/>
    <path d="M232.661 27.1116C232.661 42.0849 220.402 54.2231 205.281 54.2231C190.159 54.2231 177.901 42.0849 177.901 27.1116C177.901 12.1383 190.159 0 205.281 0C220.402 0 232.661 12.1383 232.661 27.1116ZM187.799 27.1116C187.799 36.6717 195.626 44.4216 205.281 44.4216C214.936 44.4216 222.762 36.6717 222.762 27.1116C222.762 17.5515 214.936 9.80149 205.281 9.80149C195.626 9.80149 187.799 17.5515 187.799 27.1116Z" fill="#444444"/>
  </g>
</svg>

