<svg width="22" height="22" viewBox="0 0 22 22" fill="none" xmlns="http://www.w3.org/2000/svg">
<path d="M16.31 17.5926L14.6607 10.0791L17.8677 6.8721C19.2421 5.49768 19.7002 3.66511 19.2421 2.74883C18.3258 2.29069 16.4933 2.74883 15.1188 4.12325L11.9118 7.33024L4.39833 5.68093C3.94019 5.5893 3.57368 5.77256 3.39042 6.13907L3.11554 6.59721C2.93228 7.05535 3.02391 7.5135 3.39042 7.78838L8.24672 10.9954L6.41415 13.7442H3.66531L2.74902 14.6605L5.49787 16.4931L7.33043 19.2419L8.24672 18.3256V15.5768L10.9956 13.7442L14.2025 18.6005C14.4774 18.967 14.9356 19.0586 15.3937 18.8754L15.8519 18.6921C16.2184 18.4173 16.4016 18.0507 16.31 17.5926Z" stroke="#0EA5E9" stroke-width="1.83256" stroke-linecap="round" stroke-linejoin="round"/>
</svg>




















