<svg width="24" height="24" viewBox="0 0 24 24" fill="none" xmlns="http://www.w3.org/2000/svg">
<g clip-path="url(#clip0_1387_14035)">
<path d="M0.566625 8.34794C0.199031 9.49956 -4.68667e-05 10.7264 8.27601e-09 12C-4.68667e-05 13.2736 0.199078 14.5005 0.566672 15.6521L12 16.174L23.4333 15.6522C23.8009 14.5006 24.0001 13.2736 24.0001 12.0001C24 10.7265 23.8009 9.49956 23.4333 8.34789L12 7.82617L0.566625 8.34794Z" fill="#F0F0F0"/>
<path d="M23.4332 8.34789L11.9999 7.82617L0.5665 8.34789C0.457563 8.68933 0.363766 9.03747 0.285156 9.39137H23.7144C23.6359 9.03742 23.5421 8.68923 23.4332 8.34789Z" fill="#D80027"/>
<path d="M0.285156 14.6091C0.363672 14.963 0.457469 15.3111 0.566406 15.6526L0.567531 15.6526L11.9997 16.1743L23.433 15.6526C23.542 15.3112 23.6358 14.963 23.7143 14.6091H0.285156Z" fill="#D80027"/>
<path d="M12.0002 24.0007C17.3541 24.0007 21.8883 20.4943 23.4335 15.6528H0.566895C2.11213 20.4942 6.64644 24.0007 12.0002 24.0007Z" fill="#6DA544"/>
<path d="M12.0002 -0.000732421C6.64644 -0.000685546 2.11222 3.50571 0.566895 8.3471L23.4335 8.34714C21.8884 3.50566 17.3541 -0.000779296 12.0002 -0.000732421Z" fill="#338AF3"/>
<path d="M5.48327 4.95643C5.48327 3.8325 6.27316 2.8936 7.32798 2.66325C7.16589 2.62781 6.99766 2.60864 6.82488 2.60864C5.52822 2.60864 4.47705 3.65977 4.47705 4.95647C4.47705 6.25318 5.52813 7.3043 6.82488 7.3043C6.99766 7.3043 7.16584 7.28508 7.32798 7.24969C6.2732 7.01925 5.48327 6.08035 5.48327 4.95643Z" fill="#F0F0F0"/>
<path d="M8.71531 6.02246L8.87421 6.5116H9.38853L8.97246 6.81395L9.13137 7.30309L8.71531 7.00079L8.29915 7.30309L8.4581 6.81395L8.04199 6.5116H8.55631L8.71531 6.02246Z" fill="#F0F0F0"/>
<path d="M10.3573 6.02246L10.5163 6.5116H11.0306L10.6145 6.81395L10.7734 7.30309L10.3573 7.00079L9.94119 7.30309L10.1001 6.81395L9.68408 6.5116H10.1983L10.3573 6.02246Z" fill="#F0F0F0"/>
<path d="M11.9985 6.02246L12.1574 6.5116H12.6718L12.2557 6.81395L12.4146 7.30309L11.9985 7.00079L11.5824 7.30309L11.7414 6.81395L11.3252 6.5116H11.8396L11.9985 6.02246Z" fill="#F0F0F0"/>
<path d="M13.6406 6.02246L13.7995 6.5116H14.3138L13.8978 6.81395L14.0567 7.30309L13.6406 7.00079L13.2244 7.30309L13.3834 6.81395L12.9673 6.5116H13.4816L13.6406 6.02246Z" fill="#F0F0F0"/>
<path d="M15.2821 6.02246L15.4411 6.5116H15.9554L15.5393 6.81395L15.6983 7.30309L15.2821 7.00079L14.866 7.30309L15.0249 6.81395L14.6089 6.5116H15.1232L15.2821 6.02246Z" fill="#F0F0F0"/>
<path d="M10.3573 4.31519L10.5163 4.80428H11.0306L10.6145 5.10667L10.7734 5.59577L10.3573 5.29347L9.94119 5.59577L10.1001 5.10667L9.68408 4.80428H10.1983L10.3573 4.31519Z" fill="#F0F0F0"/>
<path d="M11.9985 4.31519L12.1574 4.80428H12.6718L12.2557 5.10667L12.4146 5.59577L11.9985 5.29347L11.5824 5.59577L11.7414 5.10667L11.3252 4.80428H11.8396L11.9985 4.31519Z" fill="#F0F0F0"/>
<path d="M13.6406 4.31519L13.7995 4.80428H14.3138L13.8978 5.10667L14.0567 5.59577L13.6406 5.29347L13.2244 5.59577L13.3834 5.10667L12.9673 4.80428H13.4816L13.6406 4.31519Z" fill="#F0F0F0"/>
<path d="M15.2821 4.31519L15.4411 4.80428H15.9554L15.5393 5.10667L15.6983 5.59577L15.2821 5.29347L14.866 5.59577L15.0249 5.10667L14.6089 4.80428H15.1232L15.2821 4.31519Z" fill="#F0F0F0"/>
<path d="M11.9985 2.60815L12.1574 3.09734H12.6718L12.2557 3.39964L12.4146 3.88883L11.9985 3.58653L11.5824 3.88883L11.7414 3.39964L11.3252 3.09734H11.8396L11.9985 2.60815Z" fill="#F0F0F0"/>
<path d="M13.6406 2.60815L13.7995 3.09734H14.3138L13.8978 3.39964L14.0567 3.88883L13.6406 3.58653L13.2244 3.88883L13.3834 3.39964L12.9673 3.09734H13.4816L13.6406 2.60815Z" fill="#F0F0F0"/>
<path d="M15.2821 2.60815L15.4411 3.09734H15.9554L15.5393 3.39964L15.6983 3.88883L15.2821 3.58653L14.866 3.88883L15.0249 3.39964L14.6089 3.09734H15.1232L15.2821 2.60815Z" fill="#F0F0F0"/>
</g>
<defs>
<clipPath id="clip0_1387_14035">
<rect width="24" height="24" fill="white"/>
</clipPath>
</defs>
</svg>
