<?xml version="1.0" encoding="utf-8"?>
<!-- Generator: Adobe Illustrator 22.1.0, SVG Export Plug-In . SVG Version: 6.00 Build 0)  -->
<svg version="1.1" id="pms" xmlns="http://www.w3.org/2000/svg" xmlns:xlink="http://www.w3.org/1999/xlink" x="0px" y="0px"
	 width="113.988px" height="23px" viewBox="0 0 113.988 23" style="enable-background:new 0 0 113.988 23;" xml:space="preserve">
<g>
	<path fill="#F28C00" d="M111.703,6.23c-1.258,0-2.278,1.023-2.278,2.284c0,1.263,1.02,2.287,2.278,2.287
		c1.27,0,2.285-1.024,2.285-2.287C113.988,7.253,112.973,6.23,111.703,6.23z M8.168,0c-2.29,0-5.687,0.476-5.687,2.813v2.101H0V6.12
		h2.481v12.545h2.08V6.12h3.274l0.001-1.206H4.561V3.072c0-1.794,2.094-2.079,3.607-2.079c2.504,0,3.751,0.189,3.751,2.929
		l-0.001,14.743h2.078V0.331h-2.077C10.76,0.331,10.201,0,8.168,0z M27.877,4.914v10.3c0,0.948-0.415,2.365-4.24,2.365
		c-3.825,0-4.241-1.417-4.241-2.365v-10.3h-2.173V15.33c0,2.55,2.114,3.661,6.036,3.661c2.006,0,3.485-0.336,4.594-0.648V23h2.139
		L29.981,4.914H27.877z"/>
	<path fill="#0064A7" d="M61.835,14.408c0,0.948-0.309,2.362-3.143,2.362c-2.833,0-3.139-1.414-3.139-2.362V4.914h-3.781V15.33
		c0.001,2.55,2.621,3.661,6.545,3.661c3.471,0,5.712-1.063,6.824-1.181l0.472-0.05V4.914h-3.777V14.408z M76.689,4.582
		c-1.725,0-2.787,0.284-4.181,0.827V0.331h-3.779v17.46c1.658,0,3.99,1.201,7.203,1.201c5.268,0,7.63-2.009,7.63-7.205
		C83.562,6.568,81.954,4.582,76.689,4.582 M75.932,16.609c-1.561,0-3.165-0.806-3.282-2.296c-0.095-1.131-0.143-1.818-0.143-2.526
		c0-0.707,0.048-1.322,0.143-2.527C72.767,7.771,74.14,6.97,76.1,6.97c3.022,0,3.683,1.466,3.683,4.816
		C79.783,15.141,79.311,16.609,75.932,16.609 M106.929,8.51l-1.097,0.002c-15.32,0-20.285,2.846-20.285,6.099
		c0,3.022,2.598,4.348,6.804,4.348c2.714,0,5.459-1.173,6.896-1.173V10.46c1.792-0.227,3.132-0.263,3.132-0.263v8.47h3.776v-6.376
		C106.154,10.013,106.929,8.51,106.929,8.51 M95.547,14.28c0,1.963-1.837,2.459-3.095,2.459c-2.146,0-3.245-0.646-3.245-2.036
		c0-2.347,3.011-3.554,6.34-3.755V14.28z M106.132,4.903l-3.779,0.001v2.266h3.779V4.903z M44.802,5.409
		c-1.395-0.543-2.457-0.827-4.182-0.827c-5.267,0-6.873,1.986-6.873,7.204c0,5.196,2.361,7.205,7.63,7.205
		c3.21,0,5.544-1.201,7.204-1.201V0.331h-3.779V5.409z M44.659,14.313c-0.117,1.49-1.723,2.296-3.282,2.296
		c-3.378,0-3.851-1.468-3.851-4.822c0-3.35,0.662-4.816,3.685-4.816c1.959,0,3.331,0.801,3.448,2.29
		c0.094,1.204,0.143,1.82,0.143,2.526C44.802,12.495,44.753,13.182,44.659,14.313 M95.106,7.556
		c1.616-0.183,3.065-0.274,3.976-0.277c-0.502-1.936-2.796-2.691-6.581-2.691c-3.269,0-6.187,1.128-6.187,1.128v2.689
		c0,0,2.021-1.627,6.244-1.627C93.94,6.778,94.704,7.024,95.106,7.556"/>
</g>
</svg>
